<svg width="208" height="128" viewBox="0 0 208 128" fill="none" xmlns="http://www.w3.org/2000/svg">
<path fill-rule="evenodd" clip-rule="evenodd" d="M3.4194 113.075C3.39692 117.453 3.37612 121.832 3.35698 126.212C3.21341 127.722 0.287758 127.686 0 126.162C0.00873887 120.729 0.0191423 115.299 0.0312102 109.871C0.570523 107.952 2.24277 108.397 3.57732 109.143C19.2761 122.531 19.2761 122.531 19.5276 122.684C19.5364 118.374 19.5468 114.067 19.5588 109.763C19.8709 108.159 22.7766 108.118 22.9614 109.732V125.461C22.6243 128.046 20.5838 127.448 18.9665 126.273C9.47793 118.158 9.47793 118.158 3.4194 113.075Z" fill="#F77310"/>
<path fill-rule="evenodd" clip-rule="evenodd" d="M25.2661 122.842V117.099C26.0395 111.369 34.9157 112.636 38.5467 112.619C41.7301 112.852 44.6545 113.305 45.1801 116.978V122.846C44.4386 128.535 36.048 127.177 32.3359 127.196C30.3222 127.02 28.9558 126.859 27.1718 125.937C25.9721 125.138 25.4265 124.257 25.2661 122.842Z" fill="#F77310"/>
<path fill-rule="evenodd" clip-rule="evenodd" d="M48.955 126.055C48.9417 122.505 48.9313 118.957 48.9238 115.412C47.7958 115.376 47.1978 115.583 46.6454 114.635C46.3577 112.707 47.3732 112.81 48.9238 112.73C48.9417 111.7 48.9625 110.671 48.9862 109.642C49.3813 108.181 51.7589 108.222 52.1696 109.674C52.1871 110.689 52.2065 111.708 52.2277 112.732C57.3918 112.745 57.3918 112.745 57.7245 112.795C58.7176 113.289 58.74 114.889 57.7245 115.384C55.8905 115.401 54.0583 115.422 52.2277 115.446C52.2052 119.033 52.1859 122.622 52.1696 126.215C52.0292 127.727 49.1891 127.61 48.955 126.055Z" fill="#F77310"/>
<path fill-rule="evenodd" clip-rule="evenodd" d="M59.4453 122.685V116.88C60.0208 111.132 70.4157 112.565 73.5037 112.552C75.5304 112.714 77.6565 113.033 79.0447 114.687C80.0435 116.385 79.6065 118.439 79.6202 120.358C79.5666 120.848 79.5123 121.107 79.0766 121.406C78.8699 121.451 78.87 121.451 62.7804 121.491C62.8254 122.56 63.4365 124.12 64.7779 124.12C65.9689 125.311 71.8202 123.064 70.3009 126.804C69.5643 127.415 64.2161 127.491 63.5282 126.804C61.391 126.5 59.6326 124.842 59.4453 122.685Z" fill="#F77310"/>
<path fill-rule="evenodd" clip-rule="evenodd" d="M81.168 122.875V109.705C81.3702 108.207 84.3514 108.213 84.3514 109.705C84.3607 110.712 84.3695 111.719 84.3832 112.73C95.5064 112.775 95.5064 112.775 96.243 112.824C96.5931 113.174 97.7841 112.865 98.178 113.261C99.0519 113.436 99.7416 113.935 100.456 114.439C102.303 116.87 101.517 120.029 101.531 122.982C101.189 126.166 98.1686 126.919 95.5039 127.164C92.999 127.169 81.3552 128.423 81.168 122.875Z" fill="#F77310"/>
<path fill-rule="evenodd" clip-rule="evenodd" d="M103.479 122.842V117.099C104.252 111.378 113.088 112.636 116.697 112.619C119.825 112.816 122.872 113.265 123.393 116.978V122.846C123.144 125.245 121.371 126.517 119.083 126.935C119.025 126.998 118.337 127.06 118.272 127.123C115.263 127.318 104.054 128.738 103.479 122.842Z" fill="#F77310"/>
<path fill-rule="evenodd" clip-rule="evenodd" d="M125.515 122.842V117.161C125.938 111.409 135.389 112.627 138.733 112.618C141.78 112.805 145.016 113.274 145.43 116.977V122.845C145.286 124.26 144.814 125.015 143.744 125.903C139.562 128.124 134.931 126.995 130.32 126.995C130.262 126.933 130.07 126.933 130.008 126.87C127.704 126.45 125.785 125.269 125.515 122.842Z" fill="#F77310"/>
<path fill-rule="evenodd" clip-rule="evenodd" d="M147.583 126.055V109.763C147.77 108.141 150.347 108.168 150.766 109.639C150.775 112.506 150.786 115.378 150.798 118.253C154.353 116.473 157.911 114.695 161.472 112.918C162.726 112.606 165.458 112.644 164.093 114.68C153.86 119.831 153.86 119.831 153.828 119.907C157.226 121.61 161.256 123.169 164.377 125.3C165.546 127.439 163.06 127.12 161.784 127.12C158.143 125.286 154.502 123.454 150.86 121.623C150.815 121.61 150.775 121.601 150.735 121.592C150.744 123.098 150.754 124.606 150.766 126.118C150.548 127.628 147.649 127.741 147.583 126.055Z" fill="#F77310"/>
<path fill-rule="evenodd" clip-rule="evenodd" d="M165.402 122.842V117.099C166.175 111.373 174.997 112.636 178.62 112.619C181.748 112.816 184.795 113.265 185.316 116.978V122.846C185.067 125.241 183.294 126.517 181.006 126.935C180.944 126.998 180.26 127.06 180.195 127.123C177.186 127.318 165.977 128.738 165.402 122.842Z" fill="#F77310"/>
<path fill-rule="evenodd" clip-rule="evenodd" d="M187.345 126.055C187.354 121.57 187.364 117.086 187.376 112.604C187.579 110.932 188.352 110.127 189.811 109.358C191.95 108.674 193.577 108.701 195.928 108.701C196.759 109.2 196.948 110.324 196.303 111.105C195.058 111.843 191.08 110.557 190.622 112.728L195.597 112.742C196.99 113.034 197.033 114.71 195.867 115.38C194.119 115.389 192.371 115.399 190.624 115.411C190.601 118.926 190.58 122.443 190.561 125.964C190.466 127.754 187.591 127.713 187.345 126.055Z" fill="#F77310"/>
<path fill-rule="evenodd" clip-rule="evenodd" d="M198.174 126.212V112.605C198.269 110.951 199.307 109.98 200.734 109.297C202.513 108.784 205.52 108.011 207.133 108.946C209.447 113.19 201.664 109.93 201.435 112.712C202.995 112.717 205.956 112.128 207.255 113.125C208.958 116.532 202.635 115.409 201.421 115.413C201.398 118.992 201.378 122.571 201.358 126.149C201.235 127.691 198.377 127.633 198.174 126.212Z" fill="#F77310"/>
<path fill-rule="evenodd" clip-rule="evenodd" d="M198.174 112.604V126.211H198.112V112.604H198.174Z" fill="#FFCEBE"/>
<path fill-rule="evenodd" clip-rule="evenodd" d="M150.767 126.118C150.753 124.608 150.743 123.099 150.736 121.592C150.776 121.601 150.816 121.61 150.861 121.624C150.828 123.12 150.797 124.618 150.767 126.118Z" fill="#FFD6BD"/>
<path fill-rule="evenodd" clip-rule="evenodd" d="M22.9609 125.461V109.732H23.019V125.461H22.9609Z" fill="#FFE6DE"/>
<path fill-rule="evenodd" clip-rule="evenodd" d="M28.4849 122.876V117.07C28.9393 115.745 30.4761 115.524 31.6808 115.34C33.9695 115.326 36.2583 115.316 38.547 115.308C39.8685 115.452 40.8753 115.398 41.7785 116.419C41.8235 116.576 41.8684 116.738 41.9177 116.899C41.9134 120.702 43.203 124.032 38.9515 124.481C36.7672 124.491 34.5825 124.501 32.3974 124.513C31.0728 124.433 29.0279 124.348 28.4849 122.876Z" fill="white"/>
<path fill-rule="evenodd" clip-rule="evenodd" d="M84.3477 122.747C84.3568 120.303 84.3674 117.858 84.3795 115.413C88.024 115.426 91.6704 115.441 95.3187 115.458C96.622 115.645 97.8217 115.723 98.3299 117.067V122.685C98.1769 124.095 97.019 124.348 95.8174 124.477C93.5478 124.487 91.2799 124.498 89.0136 124.509C87.6016 124.374 84.995 124.365 84.3477 122.747Z" fill="white"/>
<path fill-rule="evenodd" clip-rule="evenodd" d="M106.698 122.876V117.07C107.139 115.79 108.645 115.497 109.831 115.34C112.161 115.326 114.491 115.316 116.822 115.308C118.08 115.421 119.298 115.421 120.053 116.54C120.466 118.36 120.107 121.11 120.098 123.016C119.401 124.284 117.842 124.351 116.569 124.514C114.3 124.501 112.032 124.49 109.766 124.482C108.586 124.303 107.184 124.127 106.698 122.876Z" fill="white"/>
<path fill-rule="evenodd" clip-rule="evenodd" d="M128.729 122.876V117.07C129.048 115.816 130.788 115.452 131.866 115.34C134.131 115.326 136.399 115.316 138.67 115.308C139.932 115.38 141.869 115.394 142.161 116.962L142.148 123.003C141.424 124.167 140.269 123.79 139.622 124.439C137.735 124.637 131.986 125.104 131.258 124.376C130.311 124.275 128.998 123.903 128.729 122.876Z" fill="white"/>
<path fill-rule="evenodd" clip-rule="evenodd" d="M168.615 122.876V117.07C169.101 115.785 170.535 115.502 171.753 115.34C174.083 115.326 176.413 115.316 178.744 115.308C180.002 115.421 181.22 115.421 181.98 116.54C182.388 118.356 182.029 121.115 182.02 123.016C181.449 124.059 180.182 124.324 179.086 124.481C175.891 124.491 172.003 125.214 169.082 123.659C168.881 123.428 168.723 123.163 168.615 122.876V122.876Z" fill="white"/>
<path fill-rule="evenodd" clip-rule="evenodd" d="M25.2661 117.098V122.841H25.208V117.098H25.2661Z" fill="#FFE6DE"/>
<path fill-rule="evenodd" clip-rule="evenodd" d="M45.1802 122.842V116.974H45.2425V122.842H45.1802Z" fill="#FFE6D6"/>
<path fill-rule="evenodd" clip-rule="evenodd" d="M103.479 117.098V122.841H103.417V117.098H103.479Z" fill="#FFE6DE"/>
<path fill-rule="evenodd" clip-rule="evenodd" d="M123.394 122.842V116.974H123.456V122.842H123.394Z" fill="#FFDED6"/>
<path fill-rule="evenodd" clip-rule="evenodd" d="M125.515 117.161V122.841H125.453V117.161H125.515Z" fill="#FFE6DE"/>
<path fill-rule="evenodd" clip-rule="evenodd" d="M145.43 122.842V116.974H145.488V122.842H145.43Z" fill="#FFDED6"/>
<path fill-rule="evenodd" clip-rule="evenodd" d="M165.402 117.098V122.841H165.339V117.098H165.402Z" fill="#FFE6DE"/>
<path fill-rule="evenodd" clip-rule="evenodd" d="M185.316 122.842V116.974H185.374V122.842H185.316Z" fill="#FFDED6"/>
<path fill-rule="evenodd" clip-rule="evenodd" d="M62.6586 116.851V118.661H62.5962V116.851H62.6586Z" fill="#F79255"/>
<path fill-rule="evenodd" clip-rule="evenodd" d="M62.6582 118.662V116.852C63.009 114.043 74.3076 115.211 76.2352 116.25C76.4555 116.654 76.4555 116.654 76.4848 116.821C76.4717 117.432 76.4624 118.047 76.4536 118.663L62.6582 118.662Z" fill="white"/>
<path fill-rule="evenodd" clip-rule="evenodd" d="M39.1588 63.1354C39.1671 63.1227 39.178 63.1119 39.1907 63.1036H39.2531V6.86702H39.1907L39.1588 6.83518C39.3461 5.41511 40.112 4.5793 40.4353 3.33963H40.5945C40.8598 2.63365 42.3067 1.62681 43.0289 1.34217V1.21733C43.6263 1.18175 44.3547 0.68738 45.0263 0.530704V0.405863L45.4714 0.365288C45.4895 0.334078 45.5076 0.307237 45.5257 0.279772C46.3122 0.392129 47.0538 -0.0572957 47.9601 0.0644244H156.697C156.926 0.0151121 157.285 0.0644229 157.784 0.0238495C157.851 0.100003 161.182 1.13369 161.609 1.32283C161.622 1.36777 161.64 1.41708 161.658 1.46639C163.676 1.9876 165.195 4.90888 165.371 6.83456V63.0131C165.281 64.2222 164.319 67.4312 162.936 67.6322V67.757C163.345 67.8195 163.431 67.8962 163.781 67.9443C163.768 67.975 163.758 68.0065 163.75 68.0385C164.518 68.3981 165.053 68.6628 165.497 69.3775C165.497 69.5023 167.557 74.1839 167.932 75.1826C168.681 76.3511 169.069 77.9328 169.676 79.2093C169.708 79.2179 169.739 79.2283 169.77 79.2405C169.811 80.0364 170.678 80.8497 170.678 81.6125C173.186 86.628 174.844 92.0886 177.357 97.0928C177.357 98.9654 180.377 101.462 179.042 103.46C178.858 104.296 177.599 105.874 176.732 106.144V106.269C176.608 106.309 176.483 106.35 176.358 106.393V106.518C176.007 106.518 175.567 106.968 175.172 107.049L175.078 107.236C174.89 107.25 174.7 107.263 174.516 107.281C174.503 107.307 174.493 107.334 174.485 107.362C173.756 107.506 173.028 107.651 172.3 107.799L172.237 107.737C172.143 107.746 172.05 107.755 171.954 107.769H32.5691C31.468 107.795 30.4343 107.238 29.3856 107.238C29.3713 107.194 29.3592 107.149 29.3494 107.103C29.0798 107.054 28.6709 106.82 28.5043 106.604C28.4731 106.618 28.4462 106.631 28.4194 106.644C28.1497 106.447 27.9294 106.213 27.6079 106.145C27.5948 106.1 26.1342 104.531 26.0081 104.487C24.4669 101.898 25.8283 100.304 26.925 97.7807C26.925 97.6559 27.2371 97.0317 27.2371 96.9068C28.684 93.797 29.8213 90.4775 31.3569 87.4189C31.3569 86.03 33.0154 84.3671 33.1952 82.9246H33.2913C33.2913 81.9402 34.5859 80.0033 34.9142 78.9921C35.7819 77.2755 36.24 75.1314 37.2862 73.5615C37.5983 72.3031 38.9535 68.5953 40.2824 68.2851C40.3679 68.0198 41.2892 67.8038 41.5932 67.7545V67.6297C41.0314 67.4 40.4871 66.699 40.22 66.1641C40.1657 66.151 40.112 66.1416 40.0627 66.1328C39.8767 65.063 39.1588 64.3439 39.1588 63.1354Z" fill="#08194A"/>
<path fill-rule="evenodd" clip-rule="evenodd" d="M105.387 104.524H109.477C108.11 104.542 106.747 104.563 105.387 104.586V104.524Z" fill="#9C9CAE"/>
<path fill-rule="evenodd" clip-rule="evenodd" d="M81.507 104.524H32.5107C31.4271 104.274 29.8815 103.712 29.5264 102.506C29.8002 101.657 30.0759 100.811 30.3534 99.9672C34.5015 90.2953 38.6527 80.6201 42.8069 70.9416C43.7239 70.2226 45.6652 70.1508 46.8019 70.1302H157.723C159.058 70.1926 160.379 70.3455 161.624 70.8493C162.869 73.5727 163.916 76.4446 165.244 79.1187C165.244 79.2436 167.866 85.3608 167.991 85.548C170.395 91.1571 172.916 96.7431 174.988 102.464C174.633 103.655 173.15 104.325 172.017 104.524H123.392C123.028 104.511 122.664 104.501 122.299 104.493C121.788 103.72 122.03 101.571 121.426 100.965C120.904 97.9447 120.109 94.6052 119.026 91.7557V91.6977C107.848 91.7152 96.675 91.7345 85.5063 91.7557L85.2903 92.3494H85.1961C84.2254 96.192 83.9783 97.3736 83.2273 100.124C83.0657 100.857 82.6793 103.927 82.1712 104.546C81.9477 104.536 81.7292 104.528 81.507 104.524Z" fill="white"/>
<path fill-rule="evenodd" clip-rule="evenodd" d="M87.1254 93.3818H117.399C118.258 94.4286 117.822 97.4847 118.68 98.343C119.058 100.406 119.75 102.442 120.116 104.491H119.46C116.922 104.5 114.383 104.511 111.845 104.523H85.0662C84.9451 104.465 84.9451 104.465 84.5 104.402C84.5362 101.78 86.2846 98.9996 86.2846 96.4061C86.661 96.0347 86.7028 93.4942 87.1254 93.3818Z" fill="white"/>
<path fill-rule="evenodd" clip-rule="evenodd" d="M85.5029 91.7545C96.6754 91.732 107.85 91.7127 119.026 91.6964V91.7545H85.5029Z" fill="#737394"/>
<path fill-rule="evenodd" clip-rule="evenodd" d="M41.2183 88.4156C81.8423 88.4331 122.468 88.4539 163.094 88.4781C41.1977 88.4469 41.1977 88.4469 41.2183 88.4156Z" fill="#525A8C"/>
<path fill-rule="evenodd" clip-rule="evenodd" d="M163.092 88.4781C122.464 88.4556 81.8383 88.4348 41.2158 88.4156C41.2158 87.4088 43.4268 83.0175 43.8999 81.8615C44.619 79.3647 46.0259 76.9627 46.8961 74.4959C47.0041 74.3386 47.1458 74.0589 47.1458 73.8717C47.1955 73.8479 47.2465 73.827 47.2987 73.8092C83.9604 73.8267 120.622 73.8475 157.284 73.8717C157.378 73.9665 157.877 75.1201 157.877 75.2449C158.434 76.5033 158.978 77.7792 159.504 79.0526C159.504 79.2142 162.951 87.9019 163.279 88.2284C163.288 88.3095 163.297 88.3907 163.31 88.4781H163.092Z" fill="#08194A"/>
<path fill-rule="evenodd" clip-rule="evenodd" d="M44.4927 86.7303C46.7814 86.7078 49.0702 86.6882 51.3589 86.6716H51.3908C49.0899 86.6899 46.7906 86.7095 44.4927 86.7303Z" fill="#313173"/>
<path fill-rule="evenodd" clip-rule="evenodd" d="M52.5791 86.6404L52.6103 86.6716H59.7886V86.7615H52.5479C52.5561 86.7206 52.5665 86.6802 52.5791 86.6404V86.6404Z" fill="#313173"/>
<path fill-rule="evenodd" clip-rule="evenodd" d="M60.9433 86.6404L60.9745 86.6716L68.1529 86.6984V86.7609H60.9121C60.9204 86.7202 60.9308 86.68 60.9433 86.6404V86.6404Z" fill="#313173"/>
<path fill-rule="evenodd" clip-rule="evenodd" d="M69.3081 86.6716H76.5801V86.7615C74.1515 86.7303 71.7275 86.7003 69.3081 86.6716Z" fill="#313173"/>
<path fill-rule="evenodd" clip-rule="evenodd" d="M127.951 86.6716H135.224C132.797 86.6982 130.373 86.7282 127.952 86.7615L127.951 86.6716Z" fill="#313173"/>
<path fill-rule="evenodd" clip-rule="evenodd" d="M136.378 86.6984L143.556 86.6716C143.564 86.6589 143.575 86.6483 143.588 86.6404C143.596 86.6813 143.607 86.7217 143.619 86.7615H136.379L136.378 86.6984Z" fill="#313173"/>
<path fill-rule="evenodd" clip-rule="evenodd" d="M144.742 86.6716H144.804C147.154 86.6895 149.506 86.709 151.858 86.7303C149.486 86.739 147.114 86.7494 144.742 86.7615V86.6716Z" fill="#313173"/>
<path fill-rule="evenodd" clip-rule="evenodd" d="M153.168 86.6984C155.499 86.676 157.829 86.6566 160.16 86.6404C160.146 86.5955 160.137 86.5549 160.128 86.5156H160.223V86.7652H153.169L153.168 86.6984Z" fill="#313173"/>
<path fill-rule="evenodd" clip-rule="evenodd" d="M44.3398 86.6404C46.6769 86.6491 49.0168 86.6595 51.3596 86.6716C49.0676 86.6895 46.7788 86.709 44.4934 86.7303H44.3398V86.6404Z" fill="#E6E6E6"/>
<path fill-rule="evenodd" clip-rule="evenodd" d="M77.6724 86.6404C94.0681 86.6179 110.464 86.5971 126.86 86.578C126.847 86.6178 126.837 86.6582 126.828 86.6991C110.451 86.7082 94.0765 86.7188 77.7036 86.7309C77.6873 86.6984 77.6786 86.6672 77.6724 86.6404Z" fill="#E6E6E6"/>
<path fill-rule="evenodd" clip-rule="evenodd" d="M151.857 86.7303C149.506 86.7078 147.155 86.6883 144.803 86.6716C147.185 86.6267 149.567 86.585 151.949 86.5468C151.958 86.5967 151.972 86.646 151.985 86.6997C151.941 86.7073 151.899 86.7175 151.857 86.7303V86.7303Z" fill="#E6E6E6"/>
<path fill-rule="evenodd" clip-rule="evenodd" d="M60.9731 86.6716C63.373 86.6579 65.776 86.6475 68.1821 86.6404C68.1688 86.658 68.1582 86.6776 68.1509 86.6984L60.9731 86.6716Z" fill="#E6E6E6"/>
<path fill-rule="evenodd" clip-rule="evenodd" d="M127.951 86.6716C127.78 85.656 127.511 84.6042 127.443 83.5749L127.574 83.5481H134.44C134.602 83.6105 135.222 86.3433 135.222 86.6691L127.951 86.6716Z" fill="white"/>
<path fill-rule="evenodd" clip-rule="evenodd" d="M136.379 86.6984C136.365 86.676 136.356 86.6579 136.347 86.6404C138.747 86.6491 141.15 86.6595 143.556 86.6716L136.379 86.6984Z" fill="#E6E6E6"/>
<path fill-rule="evenodd" clip-rule="evenodd" d="M153.168 86.6984V86.6716C155.499 86.6579 157.829 86.6475 160.16 86.6404C157.825 86.6579 155.495 86.6772 153.168 86.6984Z" fill="#E6E6E6"/>
<path fill-rule="evenodd" clip-rule="evenodd" d="M51.3597 86.6716C49.0185 86.6579 46.6785 86.6475 44.3398 86.6404C44.5333 85.9032 45.2762 83.701 45.6794 83.5481C47.9265 83.5568 50.1737 83.5672 52.4208 83.5793C52.5107 84.083 51.5619 86.1591 51.3915 86.6716H51.3597Z" fill="white"/>
<path fill-rule="evenodd" clip-rule="evenodd" d="M52.6093 86.6716L52.5781 86.6404C53.2342 84.6086 53.2342 84.6086 53.6393 83.5818C53.6886 83.5687 53.7423 83.5593 53.7966 83.5506C56.0616 83.5593 58.3295 83.5697 60.6004 83.5818C60.6154 83.6011 60.6319 83.6193 60.6497 83.6361C59.945 86.2971 59.945 86.2971 59.7864 86.6716H52.6081H52.6093Z" fill="white"/>
<path fill-rule="evenodd" clip-rule="evenodd" d="M60.9731 86.6716L60.9419 86.6404C60.9419 86.4531 61.6516 83.6292 61.8451 83.5818H68.8362C68.8362 83.8315 68.2432 86.548 68.1802 86.6404C65.777 86.6491 63.3746 86.6595 60.9731 86.6716Z" fill="white"/>
<path fill-rule="evenodd" clip-rule="evenodd" d="M69.3081 86.6716C69.8075 84.2372 69.8699 84.1748 69.9947 83.613C72.3542 83.5993 74.7152 83.5887 77.0776 83.5812C76.8616 85.2353 76.7986 85.2984 76.5782 86.6735H69.3081V86.6716Z" fill="white"/>
<path fill-rule="evenodd" clip-rule="evenodd" d="M143.555 86.6716C141.151 86.6579 138.748 86.6475 136.346 86.6404C136.122 85.6154 135.884 84.6267 135.69 83.5818H142.682C142.816 83.6317 143.493 85.9819 143.59 86.6404C143.576 86.648 143.564 86.6587 143.555 86.6716V86.6716Z" fill="white"/>
<path fill-rule="evenodd" clip-rule="evenodd" d="M144.742 86.6716C144.459 85.6691 144.396 85.6067 143.834 83.613H150.922C151.263 84.588 151.606 85.5659 151.951 86.5468C149.569 86.5884 147.187 86.63 144.805 86.6716H144.742Z" fill="white"/>
<path fill-rule="evenodd" clip-rule="evenodd" d="M152.171 83.5506C154.396 83.5593 156.622 83.5697 158.85 83.5818C159.129 83.7035 160.023 86.2428 160.127 86.5155C160.135 86.5561 160.144 86.5967 160.158 86.6404C157.826 86.6491 155.495 86.6595 153.167 86.6716H153.076C152.789 85.6242 152.303 84.6042 152.078 83.5506H152.171Z" fill="white"/>
<path fill-rule="evenodd" clip-rule="evenodd" d="M77.6724 86.6404C78.216 83.593 78.216 83.593 78.266 83.5818H126.267C126.384 83.6267 126.775 86.0268 126.86 86.578C110.46 86.5959 94.064 86.6167 77.6724 86.6404Z" fill="white"/>
<path fill-rule="evenodd" clip-rule="evenodd" d="M69.9946 83.613C70.0034 83.5862 70.0121 83.5637 70.0215 83.5412L77.075 83.5812C74.7122 83.5895 72.352 83.6001 69.9946 83.613Z" fill="#423A7B"/>
<path fill-rule="evenodd" clip-rule="evenodd" d="M143.834 83.613C143.843 83.5862 143.852 83.5637 143.861 83.5412C146.212 83.5321 148.565 83.5246 150.922 83.5187V83.613H143.834Z" fill="#423A7B"/>
<path fill-rule="evenodd" clip-rule="evenodd" d="M46.0249 82.6449C46.3619 82.9815 52.0172 82.6804 52.7931 82.676V82.7658H45.9937C46.0017 82.7249 46.0121 82.6845 46.0249 82.6449Z" fill="#3A3A7B"/>
<path fill-rule="evenodd" clip-rule="evenodd" d="M53.9487 82.6449C54.2989 82.995 59.9304 82.7347 60.7213 82.7391C58.4517 82.7391 56.1838 82.7406 53.9175 82.7435C53.9253 82.7098 53.9357 82.6769 53.9487 82.6449V82.6449Z" fill="#3A3A7B"/>
<path fill-rule="evenodd" clip-rule="evenodd" d="M70.2085 82.6449C70.568 82.8514 76.9593 82.8652 77.262 82.6449V82.7659H70.2085V82.6449Z" fill="#3A3A7B"/>
<path fill-rule="evenodd" clip-rule="evenodd" d="M86.5005 82.6449C87.3637 83.1395 92.2306 82.7348 93.429 82.7392L86.5005 82.766V82.6449Z" fill="#3A3A7B"/>
<path fill-rule="evenodd" clip-rule="evenodd" d="M110.972 82.6767C111.983 82.6767 117.408 83.0852 118.025 82.6455V82.7665H110.972V82.6767Z" fill="#3A3A7B"/>
<path fill-rule="evenodd" clip-rule="evenodd" d="M119.147 82.7391C121.488 82.7166 123.83 82.6958 126.172 82.6767C126.158 82.6981 126.145 82.7206 126.135 82.7441C123.803 82.7408 121.474 82.7391 119.147 82.7391Z" fill="#3A3A7B"/>
<path fill-rule="evenodd" clip-rule="evenodd" d="M60.7215 82.7391C59.9306 82.7347 54.2989 82.995 53.9487 82.6448C54.043 82.339 54.7303 79.7773 55.0405 79.5863H61.8138C61.8138 80.1505 61.0723 82.6311 60.7215 82.7391Z" fill="white"/>
<path fill-rule="evenodd" clip-rule="evenodd" d="M62.9683 79.5844C65.2467 79.5931 67.5252 79.6035 69.804 79.6156C69.7098 80.0738 69.3771 82.4513 69.0269 82.7366H62.0981C62.0963 81.809 62.6986 80.492 62.9683 79.5844Z" fill="white"/>
<path fill-rule="evenodd" clip-rule="evenodd" d="M78.9505 79.5844C79.9436 79.5844 85.1394 79.2099 85.7543 79.6468C85.5339 81.8628 85.4709 81.9258 85.3798 82.7392H78.3887C78.4068 82.2629 78.78 79.6293 78.9505 79.5844Z" fill="white"/>
<path fill-rule="evenodd" clip-rule="evenodd" d="M93.4311 82.7392C92.2307 82.7349 87.3638 83.1393 86.5024 82.645C86.7989 79.9708 86.7989 79.9708 86.8938 79.5975C86.9069 79.5931 86.925 79.5888 86.9431 79.5844C89.199 79.5931 91.4565 79.6035 93.7157 79.6156C93.8867 80.4833 93.599 81.836 93.5284 82.7367L93.4311 82.7392Z" fill="white"/>
<path fill-rule="evenodd" clip-rule="evenodd" d="M94.8688 79.5844H101.668C101.677 79.6164 101.688 79.6479 101.7 79.6786V82.6748C101.687 82.6942 101.676 82.7152 101.668 82.7372H94.7428C94.7225 82.7247 94.7029 82.7112 94.6841 82.6967C94.8189 79.7548 94.8189 79.7548 94.8688 79.5844Z" fill="white"/>
<path fill-rule="evenodd" clip-rule="evenodd" d="M102.824 82.7079V82.6767C102.832 82.6641 102.843 82.6534 102.855 82.6455C105.197 82.623 107.538 82.6022 109.88 82.5831C109.867 82.624 109.856 82.6657 109.848 82.7079C107.538 82.7167 105.229 82.7271 102.92 82.7391C102.889 82.7265 102.857 82.7161 102.824 82.7079V82.7079Z" fill="#EFEFEF"/>
<path fill-rule="evenodd" clip-rule="evenodd" d="M118.773 79.6178H125.64C125.734 80.2421 125.797 80.3045 126.17 82.6767C123.828 82.695 121.487 82.7158 119.145 82.7391C118.881 80.8782 118.881 80.8782 118.773 79.6178Z" fill="white"/>
<path fill-rule="evenodd" clip-rule="evenodd" d="M126.828 79.5844C129.084 79.5931 131.341 79.6035 133.6 79.6156C133.929 80.5413 134.252 81.7685 134.252 82.7366H127.326C127.264 82.6424 127.264 82.6424 126.733 79.5819L126.828 79.5844Z" fill="white"/>
<path fill-rule="evenodd" clip-rule="evenodd" d="M134.814 79.5844H141.497C141.838 79.8266 142.433 82.1549 142.433 82.7391H135.505C135.042 81.912 134.934 80.5232 134.727 79.5844H134.814Z" fill="white"/>
<path fill-rule="evenodd" clip-rule="evenodd" d="M142.742 79.5844H149.484C149.812 79.7092 150.482 82.276 150.545 82.7391H143.682C143.138 82.2447 142.796 80.2897 142.742 79.5844Z" fill="white"/>
<path fill-rule="evenodd" clip-rule="evenodd" d="M150.732 79.5844H157.224C157.458 79.6743 158.379 82.1324 158.532 82.7054C156.285 82.7141 154.038 82.7245 151.79 82.7366C151.483 82.2266 150.638 79.9708 150.732 79.5844Z" fill="white"/>
<path fill-rule="evenodd" clip-rule="evenodd" d="M46.0249 82.6448C46.0249 82.2585 47.063 79.6487 47.3014 79.5863H53.7934C53.9101 80.2379 53.025 81.8733 52.7909 82.6779C52.0175 82.6804 46.362 82.9819 46.0249 82.6448Z" fill="white"/>
<path fill-rule="evenodd" clip-rule="evenodd" d="M70.2085 82.6448C70.2403 82.3614 70.3028 82.2984 70.8951 79.6069C70.9379 79.5965 70.9812 79.589 71.025 79.5844C73.2721 79.5931 75.5192 79.6035 77.7664 79.6156C77.5999 80.6226 77.4335 81.6324 77.267 82.6448C76.9593 82.8639 70.568 82.8514 70.2085 82.6448Z" fill="white"/>
<path fill-rule="evenodd" clip-rule="evenodd" d="M102.824 79.5844V82.7054H102.734V79.5844H102.824Z" fill="#21196A"/>
<path fill-rule="evenodd" clip-rule="evenodd" d="M110.972 82.6768C110.909 81.6656 110.847 80.6558 110.785 79.6474C111.629 79.1668 116.479 79.6119 117.651 79.6162C117.772 80.6233 117.897 81.6331 118.025 82.6456C117.408 83.0851 111.983 82.6768 110.972 82.6768Z" fill="white"/>
<path fill-rule="evenodd" clip-rule="evenodd" d="M102.824 82.6767V79.6178C102.833 80.625 102.843 81.6348 102.855 82.6474C102.843 82.6548 102.832 82.6648 102.824 82.6767V82.6767Z" fill="#D6D6D6"/>
<path fill-rule="evenodd" clip-rule="evenodd" d="M102.855 82.6449C102.842 81.6337 102.831 80.6239 102.824 79.6156V79.5844H103.17V79.6468H109.534V79.5844C109.574 79.5931 109.615 79.6019 109.659 79.6156C109.704 79.7548 109.704 79.7548 109.879 82.5818C107.538 82.6001 105.197 82.6211 102.855 82.6449Z" fill="white"/>
<path fill-rule="evenodd" clip-rule="evenodd" d="M78.9507 79.5842C81.2157 79.5618 83.4837 79.541 85.7545 79.5219V79.6466C85.1397 79.2114 79.9438 79.5842 78.9507 79.5842Z" fill="#3A3173"/>
<path fill-rule="evenodd" clip-rule="evenodd" d="M103.17 79.5844H109.533V79.6465H103.17V79.5844Z" fill="#E6EFEC"/>
<path fill-rule="evenodd" clip-rule="evenodd" d="M110.783 79.6465V79.5219H117.649V79.6179C116.477 79.611 111.629 79.1665 110.783 79.6465Z" fill="#3A3173"/>
<path fill-rule="evenodd" clip-rule="evenodd" d="M62.9683 79.5842L69.7771 79.5567C69.7858 79.5748 69.7952 79.593 69.8039 79.6156C67.5256 79.6018 65.247 79.5913 62.9683 79.5842Z" fill="#3A3173"/>
<path fill-rule="evenodd" clip-rule="evenodd" d="M71.022 79.5842C73.2691 79.5618 75.5162 79.541 77.7634 79.522V79.6178C75.5162 79.6025 73.2691 79.5913 71.022 79.5842Z" fill="#3A3173"/>
<path fill-rule="evenodd" clip-rule="evenodd" d="M86.9409 79.5842L93.6867 79.5567C93.6954 79.5748 93.7048 79.593 93.7135 79.6156C91.4535 79.6018 89.196 79.5913 86.9409 79.5842Z" fill="#3A3173"/>
<path fill-rule="evenodd" clip-rule="evenodd" d="M109.534 79.5842H102.917C105.165 79.5618 107.412 79.541 109.659 79.522V79.6178C109.615 79.6016 109.575 79.5929 109.534 79.5842Z" fill="#3A3173"/>
<path fill-rule="evenodd" clip-rule="evenodd" d="M118.773 79.6178V79.5238H125.64V79.6178H118.773Z" fill="#3A3173"/>
<path fill-rule="evenodd" clip-rule="evenodd" d="M126.827 79.5842L133.573 79.5567C133.582 79.5748 133.591 79.593 133.6 79.6156C131.34 79.6018 129.082 79.5913 126.827 79.5842Z" fill="#3A3173"/>
<path fill-rule="evenodd" clip-rule="evenodd" d="M126.639 78.7442C128.886 78.7217 131.133 78.7009 133.38 78.6818V78.7767C131.133 78.7621 128.886 78.7513 126.639 78.7442Z" fill="#525284"/>
<path fill-rule="evenodd" clip-rule="evenodd" d="M150.422 78.7442C152.575 78.7217 154.728 78.7009 156.88 78.6818C156.894 78.7124 156.894 78.7124 150.422 78.7442Z" fill="#525284"/>
<path fill-rule="evenodd" clip-rule="evenodd" d="M48.9235 75.6232H48.9859C51.0533 75.6327 53.1236 75.6434 55.1968 75.655C54.6975 77.1831 54.6351 77.2455 54.15 78.6974C54.1132 78.7119 54.0771 78.7284 54.042 78.7467H47.6751C47.589 78.1144 48.6002 76.3572 48.9235 75.6232Z" fill="white"/>
<path fill-rule="evenodd" clip-rule="evenodd" d="M56.4159 75.6232C58.5869 75.6327 60.7608 75.6434 62.9376 75.655C62.251 78.248 62.251 78.248 62.0787 78.6974C62.0421 78.712 62.0063 78.7285 61.9714 78.7467H55.3548C55.283 78.0726 56.0558 76.3872 56.3211 75.655C56.352 75.6425 56.3837 75.6319 56.4159 75.6232V75.6232Z" fill="white"/>
<path fill-rule="evenodd" clip-rule="evenodd" d="M64.1553 75.6232H70.7095C70.5565 76.6525 70.2376 77.6831 70.0035 78.6974C69.9679 78.7111 69.9317 78.7286 69.8955 78.7467H63.1909C63.357 77.7399 64.0648 76.5713 64.0648 75.6257L64.1553 75.6232Z" fill="white"/>
<path fill-rule="evenodd" clip-rule="evenodd" d="M71.8363 75.6232H78.4529C78.3224 76.6569 78.0846 77.6862 77.936 78.6974C77.8774 78.7111 77.8193 78.7286 77.765 78.7467H71.1484C71.1484 78.0576 71.5217 76.2536 71.8363 75.6232Z" fill="white"/>
<path fill-rule="evenodd" clip-rule="evenodd" d="M79.6378 75.6232H86.1919C86.0796 77.0751 86.0796 77.0751 85.873 78.7061L85.8193 78.7467H79.0454C79.4824 75.9378 79.5448 75.8754 79.5448 75.6257L79.6378 75.6232Z" fill="white"/>
<path fill-rule="evenodd" clip-rule="evenodd" d="M87.3764 75.5891H93.9305C93.9349 76.124 93.9617 78.585 93.7464 78.7436H87.0619C87.0403 78.73 87.0178 78.7181 86.9944 78.708C86.9726 77.773 87.0575 76.4835 87.3764 75.5891Z" fill="white"/>
<path fill-rule="evenodd" clip-rule="evenodd" d="M95.0534 75.6232H101.67C101.68 75.6413 101.688 75.6637 101.702 75.6856V78.6818C101.689 78.7012 101.678 78.7222 101.67 78.7442H94.9285C94.6844 78.0694 95.0084 76.3797 95.0534 75.6232Z" fill="white"/>
<path fill-rule="evenodd" clip-rule="evenodd" d="M102.824 78.7124V75.6538C104.999 75.6401 107.174 75.6294 109.349 75.6219H109.412C109.677 76.5345 109.582 77.7836 109.627 78.743H102.918C102.888 78.7309 102.856 78.7207 102.824 78.7124V78.7124Z" fill="white"/>
<path fill-rule="evenodd" clip-rule="evenodd" d="M110.599 75.6232H117.247C117.35 76.6614 117.454 77.7018 117.559 78.7442H110.846C110.805 78.7261 110.769 78.7086 110.734 78.6949C110.661 77.6649 110.571 76.6494 110.599 75.6232Z" fill="white"/>
<path fill-rule="evenodd" clip-rule="evenodd" d="M118.338 75.6232H124.892L124.96 75.65C125.05 76.248 125.112 76.311 125.454 78.7155C123.207 78.7242 120.96 78.7346 118.713 78.7467C118.374 78.5101 118.302 76.2717 118.338 75.6232Z" fill="white"/>
<path fill-rule="evenodd" clip-rule="evenodd" d="M126.14 75.6232H132.727C132.914 76.6481 133.186 77.6593 133.383 78.6818C131.136 78.6997 128.889 78.7205 126.642 78.7442C126.584 78.7036 126.584 78.7036 126.049 75.6232H126.14Z" fill="white"/>
<path fill-rule="evenodd" clip-rule="evenodd" d="M133.816 75.6232H140.463C140.584 76.1175 141.462 78.3559 141.308 78.7286C141.266 78.7325 141.224 78.7385 141.183 78.7467H134.566C134.22 78.5058 133.913 76.2986 133.816 75.6232Z" fill="white"/>
<path fill-rule="evenodd" clip-rule="evenodd" d="M141.618 75.6232H148.208C148.513 76.6706 149.043 77.6637 149.206 78.7442H142.496C142.015 77.9533 141.791 76.5376 141.53 75.6232H141.618Z" fill="white"/>
<path fill-rule="evenodd" clip-rule="evenodd" d="M149.331 75.6519C151.398 75.6382 153.469 75.6275 155.543 75.6201H155.601C156.136 76.537 156.474 77.6968 156.881 78.6786C154.729 78.6965 152.576 78.7173 150.423 78.7411C149.902 77.8897 149.672 76.6269 149.331 75.6519Z" fill="white"/>
<path fill-rule="evenodd" clip-rule="evenodd" d="M102.824 75.6519V78.7105H102.734V75.6519H102.824Z" fill="#21196A"/>
<path fill-rule="evenodd" clip-rule="evenodd" d="M48.9868 75.6232C51.045 75.6099 53.1049 75.5995 55.1664 75.592C55.1752 75.6101 55.1845 75.6325 55.1977 75.6544C53.1261 75.639 51.0558 75.6286 48.9868 75.6232Z" fill="#DEDEDE"/>
<path fill-rule="evenodd" clip-rule="evenodd" d="M56.4155 75.6232V75.592H62.9073C62.9166 75.6101 62.9254 75.6325 62.9391 75.6544C60.7627 75.639 58.5882 75.6286 56.4155 75.6232Z" fill="#DEDEDE"/>
<path fill-rule="evenodd" clip-rule="evenodd" d="M64.1548 75.6232V75.592C66.3162 75.6007 68.4801 75.6111 70.6465 75.6232H64.1548Z" fill="#DEDEDE"/>
<path fill-rule="evenodd" clip-rule="evenodd" d="M79.6377 75.6232V75.592C81.7991 75.6007 83.963 75.6111 86.1294 75.6232H79.6377Z" fill="#DEDEDE"/>
<path fill-rule="evenodd" clip-rule="evenodd" d="M102.824 75.6519C102.832 75.6298 102.842 75.6088 102.855 75.5895C105.017 75.5982 107.181 75.6086 109.347 75.6207C107.174 75.6298 104.999 75.6402 102.824 75.6519Z" fill="#DEDEDE"/>
<path fill-rule="evenodd" clip-rule="evenodd" d="M110.658 75.6232C112.82 75.6099 114.983 75.5995 117.149 75.592V75.6232H110.658Z" fill="#DEDEDE"/>
<path fill-rule="evenodd" clip-rule="evenodd" d="M118.401 75.6232C120.563 75.6099 122.727 75.5995 124.893 75.592V75.6232H118.401Z" fill="#DEDEDE"/>
<path fill-rule="evenodd" clip-rule="evenodd" d="M126.14 75.6232V75.592H132.632V75.6232H126.14Z" fill="#DEDEDE"/>
<path fill-rule="evenodd" clip-rule="evenodd" d="M133.88 75.6232C136.042 75.6099 138.206 75.5995 140.372 75.592V75.6232H133.88Z" fill="#DEDEDE"/>
<path fill-rule="evenodd" clip-rule="evenodd" d="M141.618 75.6232V75.592H148.11V75.6232H141.618Z" fill="#DEDEDE"/>
<path fill-rule="evenodd" clip-rule="evenodd" d="M149.331 75.6519C149.339 75.6299 149.35 75.6089 149.363 75.5895C151.421 75.5982 153.481 75.6086 155.543 75.6207C153.47 75.6298 151.399 75.6402 149.331 75.6519Z" fill="#DEDEDE"/>
<path fill-rule="evenodd" clip-rule="evenodd" d="M48.9243 75.6232V75.5289H55.1664V75.5913C53.1032 75.6001 51.0433 75.6105 48.9867 75.6226L48.9243 75.6232Z" fill="#191963"/>
<path fill-rule="evenodd" clip-rule="evenodd" d="M70.6494 75.6232C68.4826 75.6099 66.3187 75.5995 64.1577 75.5921V75.5298H70.7119V75.6232H70.6494Z" fill="#191963"/>
<path fill-rule="evenodd" clip-rule="evenodd" d="M71.8357 75.6232C71.8626 75.5289 71.8626 75.5289 71.9387 75.4796C74.1097 75.4929 76.2805 75.5094 78.451 75.5289V75.6232H71.8345H71.8357Z" fill="#191963"/>
<path fill-rule="evenodd" clip-rule="evenodd" d="M86.128 75.6232C83.9611 75.6099 81.7972 75.5995 79.6362 75.5921V75.5298H86.1904V75.6232H86.128Z" fill="#191963"/>
<path fill-rule="evenodd" clip-rule="evenodd" d="M95.0527 75.6232V75.5289H101.669V75.6232H95.0527Z" fill="#191963"/>
<path fill-rule="evenodd" clip-rule="evenodd" d="M109.349 75.6232C107.185 75.6099 105.021 75.5995 102.857 75.5921V75.5298H109.412V75.6232H109.349Z" fill="#191963"/>
<path fill-rule="evenodd" clip-rule="evenodd" d="M110.599 75.6232V75.5289H117.153V75.5913C114.989 75.6001 112.825 75.6105 110.662 75.6226L110.599 75.6232Z" fill="#191963"/>
<path fill-rule="evenodd" clip-rule="evenodd" d="M118.338 75.6232V75.5289H124.892V75.5913C122.725 75.6001 120.561 75.6105 118.4 75.6226L118.338 75.6232Z" fill="#191963"/>
<path fill-rule="evenodd" clip-rule="evenodd" d="M133.816 75.6232V75.5289H140.373V75.5913C138.206 75.6001 136.042 75.6105 133.881 75.6226L133.816 75.6232Z" fill="#191963"/>
<path fill-rule="evenodd" clip-rule="evenodd" d="M155.542 75.6232C153.479 75.6099 151.419 75.5995 149.363 75.5921V75.5298H155.6V75.6232H155.542Z" fill="#191963"/>
<path fill-rule="evenodd" clip-rule="evenodd" d="M56.4155 75.5891V75.5264H62.9073V75.5891H56.4155Z" fill="#191963"/>
<path fill-rule="evenodd" clip-rule="evenodd" d="M87.377 75.5891V75.5264H93.9311V75.5891H87.377Z" fill="#191963"/>
<path fill-rule="evenodd" clip-rule="evenodd" d="M126.14 75.5891V75.5264H132.632V75.5891H126.14Z" fill="#191963"/>
<path fill-rule="evenodd" clip-rule="evenodd" d="M141.618 75.5891V75.5264H148.11V75.5891H141.618Z" fill="#191963"/>
<path fill-rule="evenodd" clip-rule="evenodd" d="M47.3013 73.8092C83.9629 73.7955 120.625 73.7849 157.286 73.7774V73.8717C120.622 73.8492 83.96 73.8284 47.3013 73.8092Z" fill="#9C9CA5"/>
<path fill-rule="evenodd" clip-rule="evenodd" d="M46.8027 70.1302C46.8652 70.1164 46.9276 70.1077 46.99 70.0983H157.599C157.64 70.1077 157.68 70.1164 157.724 70.1302H46.8027Z" fill="#CECEC5"/>
<path fill-rule="evenodd" clip-rule="evenodd" d="M46.9917 70.0965V70.0341H157.601V70.0965H46.9917Z" fill="#101963"/>
<path fill-rule="evenodd" clip-rule="evenodd" d="M47.769 66.7888C47.7875 66.7658 47.8084 66.7448 47.8315 66.7264C84.1814 66.736 120.531 66.7466 156.88 66.7582C156.786 66.7763 156.693 66.7988 156.602 66.8207H47.99C47.9126 66.8069 47.8408 66.7982 47.769 66.7888Z" fill="#EFEFEF"/>
<path fill-rule="evenodd" clip-rule="evenodd" d="M43.2749 63.0144V6.7735C43.7693 4.38717 45.7823 3.4028 48.0813 3.18307L48.1437 3.2455H156.509C156.528 3.22227 156.549 3.20131 156.572 3.18307C158.851 3.49518 160.86 4.42774 161.253 6.89959V63.1367C160.876 65.2665 159.029 66.6241 156.884 66.7571C120.535 66.7434 84.1853 66.7327 47.8353 66.7253C47.8123 66.7437 47.7914 66.7646 47.7729 66.7877C45.6344 66.7889 43.4815 65.1441 43.2749 63.0144Z" fill="white"/>
<path fill-rule="evenodd" clip-rule="evenodd" d="M39.1587 63.1354V6.83592L39.1905 6.86776V63.1042C39.1779 63.1124 39.1671 63.123 39.1587 63.1354V63.1354Z" fill="#CECECE"/>
<path fill-rule="evenodd" clip-rule="evenodd" d="M39.1895 63.1036V6.86728H39.2519V63.1036H39.1895Z" fill="#21216B"/>
<path fill-rule="evenodd" clip-rule="evenodd" d="M52.1426 60.8295C52.1507 60.8169 52.1616 60.8062 52.1744 60.7983C85.5577 60.807 118.941 60.8175 152.324 60.8295C152.293 60.8476 152.262 60.8657 152.23 60.8882H52.1738C52.1601 60.8657 52.1513 60.8476 52.1426 60.8295Z" fill="#19196B"/>
<path fill-rule="evenodd" clip-rule="evenodd" d="M52.1425 60.8296L52.1113 60.7984V9.17231C52.1294 9.16357 52.1519 9.1542 52.1737 9.14546V60.7984C52.1612 60.8064 52.1505 60.8171 52.1425 60.8296V60.8296Z" fill="#422973"/>
<path fill-rule="evenodd" clip-rule="evenodd" d="M52.1738 60.7984V9.17231L152.23 9.14546H152.354V60.8296H152.323C118.94 60.8159 85.5576 60.8055 52.1738 60.7984Z" fill="#08194A"/>
<path fill-rule="evenodd" clip-rule="evenodd" d="M152.355 60.8296V9.14546C152.373 9.1542 152.396 9.16357 152.417 9.17231V60.7984C152.395 60.806 152.374 60.8165 152.355 60.8296V60.8296Z" fill="#634A6B"/>
<path fill-rule="evenodd" clip-rule="evenodd" d="M52.1098 9.1722V60.7984H52.0474V9.1722H52.1098Z" fill="#DEDEDE"/>
<path fill-rule="evenodd" clip-rule="evenodd" d="M152.418 60.7984V9.1722H152.48V60.7984H152.418Z" fill="#E6E6E6"/>
<path fill-rule="evenodd" clip-rule="evenodd" d="M52.1738 9.17232V9.11427C85.5259 9.12301 118.878 9.13341 152.23 9.14548L52.1738 9.17232Z" fill="#422973"/>
<path fill-rule="evenodd" clip-rule="evenodd" d="M152.23 9.14547C118.878 9.13173 85.5259 9.12133 52.1738 9.11426V9.05183H152.356V9.14547H152.23Z" fill="#DEDEDE"/>
<path fill-rule="evenodd" clip-rule="evenodd" d="M48.085 3.18165C48.1343 3.16793 48.188 3.15921 48.2423 3.14986H156.292C156.386 3.15921 156.479 3.16793 156.575 3.18165C156.552 3.19985 156.531 3.22078 156.512 3.24398H48.1474L48.085 3.18165Z" fill="#DEDEDE"/>
<path fill-rule="evenodd" clip-rule="evenodd" d="M47.9604 0.0624155C47.9791 0.0395245 48 0.0186092 48.0229 0H156.635L156.697 0.0624155H47.9604Z" fill="#949C9C"/>
</svg>
